<?xml version="1.0" encoding="UTF-8" standalone="no"?>
<!-- Created with Inkscape (http://www.inkscape.org/) -->

<svg
   width="210mm"
   height="297mm"
   viewBox="0 0 210 297"
   version="1.1"
   id="svg567497"
   xml:space="preserve"
   inkscape:version="1.2.1 (9c6d41e410, 2022-07-14)"
   sodipodi:docname="dibujo.svg"
   xmlns:inkscape="http://www.inkscape.org/namespaces/inkscape"
   xmlns:sodipodi="http://sodipodi.sourceforge.net/DTD/sodipodi-0.dtd"
   xmlns="http://www.w3.org/2000/svg"
   xmlns:svg="http://www.w3.org/2000/svg"><sodipodi:namedview
     id="namedview567499"
     pagecolor="#ffffff"
     bordercolor="#000000"
     borderopacity="0.25"
     inkscape:showpageshadow="true"
     inkscape:pageopacity="0.0"
     inkscape:pagecheckerboard="0"
     inkscape:deskcolor="#ffffff"
     inkscape:document-units="mm"
     showgrid="false"
     showborder="false"
     borderlayer="true"
     inkscape:zoom="0.36209222"
     inkscape:cx="-6.9043184"
     inkscape:cy="-330.02642"
     inkscape:window-width="1350"
     inkscape:window-height="1042"
     inkscape:window-x="-321"
     inkscape:window-y="36"
     inkscape:window-maximized="0"
     inkscape:current-layer="layer1" /><defs
     id="defs567494" /><g
     inkscape:label="Capa 1"
     inkscape:groupmode="layer"
     id="layer1"
     style="display:inline"><g
       inkscape:label="Image"
       id="g561917"
       transform="matrix(0.58210338,0,0,0.60406787,149.23408,-175.70763)"><path
         style="fill:#ffffff;stroke-width:0.816167"
         d="M -364.55819,232.17235 V 28.172335 H -140.40641 83.745381 V 232.17235 436.17234 H -140.40641 -364.55819 Z"
         id="path561971"
         sodipodi:nodetypes="ccccccccc" /><path
         d="m -109.83876,395.03065 c 3.43277,-2.86315 3.76125,-20.84209 3.20487,-175.4317 l -0.61993,-172.241611 -6.57185,-1.927531 c -4.46196,-1.30873 -8.54978,-1.175921 -12.7328,0.413729 l -6.16096,2.34126 V 220.02404 c 0,153.52033 0.40623,172.17805 3.81117,175.01793 4.89261,4.08069 14.16989,4.07517 19.0695,-0.0134 z m -56.83486,-41.89418 c 4.50775,-1.89227 6.25282,-4.4301 6.80225,-9.89215 1.33618,-13.28403 -1.3673,-13.79976 -72.33989,-13.79976 -45.01422,0 -62.83154,-0.66595 -64.94347,-2.42739 -4.19523,-3.4991 -4.19523,-206.06585 0,-209.56491 2.10672,-1.75712 19.6866,-2.43563 63.66412,-2.45723 69.11569,-0.0342 72.4266,-0.59774 73.62424,-12.53748 1.36176,-13.575426 -1.45834,-14.06728 -76.516,-13.345573 -100.65581,0.967834 -92.78628,-10.320183 -92.78628,133.092443 0,143.82988 -7.7185,133.08729 95.79928,133.33322 44.18764,0.10515 62.27699,-0.5463 66.69575,-2.40117 z m 112.638865,-26.16484 c 5.179676,-6.16786 4.759365,-9.0273 -2.177549,-14.81304 -9.6286,-8.03079 -23.150573,-3.33545 -23.150573,8.03877 0,10.8339 17.898651,15.6211 25.328122,6.77427 z m 41.230089,0 c 5.4223293,-6.45679 4.6803697,-10.79955 -2.668855,-15.62114 -13.899119,-9.11871 -30.496465,5.49554 -18.645444,16.41769 5.606487,5.167 16.652844,4.75418 21.314299,-0.79655 z m 41.230088,0 c 5.42233,-6.45679 4.680371,-10.79955 -2.668896,-15.62114 -13.899077,-9.11871 -30.4964232,5.49554 -18.6454016,16.41769 5.6064866,5.167 16.6528436,4.75418 21.3142976,-0.79655 z m 26.64255,-20.93408 c 2.096178,-1.74828 3.79446,-5.16182 3.774045,-7.58559 -0.110828,-13.16341 -20.429222,-16.58592 -27.004905,-4.54884 -6.017923,11.01614 12.791762,20.84122 23.23086,12.13443 z m -1.579081,-34.35829 c 10.739791,-6.27407 3.919829,-21.12498 -9.70118,-21.12498 -2.371037,0 -6.49373,1.82057 -9.161543,4.04567 -12.858966,10.72503 3.846958,25.85147 18.862723,17.07931 z m 0,-34.38805 c 10.739791,-6.27408 3.919829,-21.12498 -9.70118,-21.12498 -2.371037,0 -6.49373,1.82054 -9.161543,4.04567 -12.858966,10.72503 3.846958,25.85147 18.862723,17.07931 z m 0,-34.38805 c 10.739791,-6.27411 3.919829,-21.12499 -9.70118,-21.12499 -2.371037,0 -6.49373,1.82054 -9.161543,4.04564 -12.858966,10.72507 3.846958,25.85147 18.862723,17.07935 z m 0,-34.38809 c 10.739791,-6.27408 3.919829,-21.12498 -9.70118,-21.12498 -2.371037,0 -6.49373,1.82054 -9.161543,4.04567 -12.858966,10.72503 3.846958,25.85147 18.862723,17.07931 z M -56.212304,144.44781 c 9.69139,-8.0831 4.712994,-19.3088 -8.563075,-19.3088 -13.607593,0 -19.4464,12.13004 -9.736887,20.22824 6.40086,5.33869 11.078481,5.10368 18.299962,-0.91944 z m 40.79278,0.77264 c 10.4366401,-6.84714 5.4927842,-20.08144 -7.501717,-20.08144 -19.520021,0 -19.867627,22.02826 -0.380396,24.11421 0.820581,0.0877 4.367554,-1.72691 7.882238,-4.03277 z m 41.230089,0 c 10.43664,-6.84714 5.492784,-20.08144 -7.501717,-20.08144 -19.5200206,0 -19.8676683,22.02826 -0.380396,24.11421 0.820581,0.0877 4.367554,-1.72691 7.882238,-4.03277 z"
         style="fill:#000000;stroke-width:3.73525;image-rendering:auto"
         id="path568507" /></g></g></svg>
