<?xml version="1.0" encoding="UTF-8" standalone="no"?>
<!-- Created with Inkscape (http://www.inkscape.org/) -->

<svg
   version="1.1"
   id="svg561911"
   width="673"
   height="408"
   viewBox="0 0 673 408"
   sodipodi:docname="enkage sin logo.svg"
   inkscape:version="1.2.1 (9c6d41e410, 2022-07-14)"
   xmlns:inkscape="http://www.inkscape.org/namespaces/inkscape"
   xmlns:sodipodi="http://sodipodi.sourceforge.net/DTD/sodipodi-0.dtd"
   xmlns="http://www.w3.org/2000/svg"
   xmlns:svg="http://www.w3.org/2000/svg">
  <defs
     id="defs561915" />
  <sodipodi:namedview
     id="namedview561913"
     pagecolor="#ffffff"
     bordercolor="#000000"
     borderopacity="0.25"
     inkscape:showpageshadow="2"
     inkscape:pageopacity="0.0"
     inkscape:pagecheckerboard="0"
     inkscape:deskcolor="#d1d1d1"
     showgrid="false"
     inkscape:zoom="1.2041182"
     inkscape:cx="413.58065"
     inkscape:cy="-487.07841"
     inkscape:window-width="1350"
     inkscape:window-height="1042"
     inkscape:window-x="1676"
     inkscape:window-y="148"
     inkscape:window-maximized="0"
     inkscape:current-layer="g561917"
     showguides="true"
     showborder="false">
    <sodipodi:guide
       position="-241.94301,951.78454"
       orientation="0,-1"
       id="guide563862"
       inkscape:locked="false" />
  </sodipodi:namedview>
  <g
     inkscape:groupmode="layer"
     inkscape:label="Image"
     id="g561917"
     style="display:inline">
    <path
       style="fill:#000000"
       d="m 89.260529,-365.8432 v -204.00001 h 336.500001 336.5 v 204.00001 204 h -336.5 -336.500001 z"
       id="path561971"
       sodipodi:nodetypes="ccccccccc" />
    <path
       d="m -338.7003,-321.69996 c 1.68547,-1.44394 1.84674,-10.51114 1.57356,-88.47426 l -0.30437,-86.86543 -3.22672,-0.97211 c -2.1908,-0.66003 -4.19788,-0.59304 -6.25171,0.20865 l -3.02497,1.18076 v 86.6625 c 0,77.42388 0.19948,86.8334 1.87126,88.26561 2.40222,2.05798 6.9573,2.05521 9.36295,-0.006 z m -27.90542,-21.1282 c 2.21326,-0.95431 3.07008,-2.23419 3.33984,-4.98883 0.65606,-6.69945 -0.67133,-6.95954 -35.51825,-6.95954 -22.10159,0 -30.84973,-0.33586 -31.88666,-1.22419 -2.05983,-1.76467 -2.05983,-103.92378 0,-105.68845 1.03438,-0.88615 9.66594,-1.22835 31.25851,-1.23923 33.9352,-0.0171 35.56082,-0.30146 36.14886,-6.32295 0.66861,-6.84639 -0.71604,-7.09445 -37.5687,-6.73048 -49.4211,0.4881 -45.55724,-5.20471 -45.55724,67.12161 0,72.53674 -3.78971,67.119 47.03662,67.24303 21.69573,0.053 30.57745,-0.2755 32.74702,-1.21097 z m 55.3047,-13.19553 c 2.54318,-3.11059 2.33681,-4.55268 -1.06916,-7.47056 -4.72756,-4.05011 -11.36672,-1.68214 -11.36672,4.05413 0,5.4638 8.78808,7.8781 12.43588,3.41643 z m 20.24361,0 c 2.66232,-3.2563 2.29802,-5.44646 -1.31039,-7.8781 -6.82433,-4.59879 -14.97348,2.77153 -9.15473,8.27981 2.75272,2.60584 8.17639,2.39766 10.46512,-0.40171 z m 20.24361,0 c 2.66232,-3.2563 2.29802,-5.44646 -1.31039,-7.8781 -6.82434,-4.59879 -14.97348,2.77153 -9.15473,8.27981 2.75272,2.60584 8.17639,2.39766 10.46512,-0.40171 z m 13.08127,-10.55754 c 1.02919,-0.8817 1.86305,-2.60322 1.85303,-3.82559 -0.0544,-6.63861 -10.03058,-8.36466 -13.25918,-2.29409 -2.95475,5.5557 6.28063,10.51071 11.40615,6.11968 z m -0.77531,-17.32767 c 5.27314,-3.16418 1.9246,-10.65383 -4.7632,-10.65383 -1.16415,0 -3.18836,0.91815 -4.49824,2.04032 -6.31363,5.40889 1.88881,13.0375 9.26144,8.61351 z m 0,-17.3427 c 5.27314,-3.16418 1.9246,-10.65382 -4.7632,-10.65382 -1.16415,0 -3.18836,0.91814 -4.49824,2.04031 -6.31363,5.40889 1.88881,13.0375 9.26144,8.61351 z m 0,-17.3427 c 5.27314,-3.16418 1.9246,-10.65382 -4.7632,-10.65382 -1.16415,0 -3.18836,0.91814 -4.49824,2.04031 -6.31363,5.4089 1.88881,13.0375 9.26144,8.61351 z m 0,-17.3427 c 5.27314,-3.16417 1.9246,-10.65382 -4.7632,-10.65382 -1.16415,0 -3.18836,0.91814 -4.49824,2.04031 -6.31363,5.4089 1.88881,13.0375 9.26144,8.61351 z m -53.86234,-12.1377 c 4.75838,-4.07649 2.31405,-9.73787 -4.20439,-9.73787 -6.6812,0 -9.54801,6.11746 -4.78073,10.20159 3.14277,2.69241 5.43943,2.57389 8.98512,-0.46372 z m 20.0289,0.38967 c 5.12431,-3.45316 2.69691,-10.12754 -3.68327,-10.12754 -9.58417,0 -9.75484,11.10938 -0.18683,12.16136 0.40288,0.0443 2.14443,-0.87092 3.8701,-2.03382 z m 20.24361,0 c 5.12431,-3.45316 2.69691,-10.12754 -3.68327,-10.12754 -9.58417,0 -9.75484,11.10938 -0.18683,12.16136 0.40288,0.0443 2.14443,-0.87092 3.8701,-2.03382 z"
       style="fill:#000000;stroke-width:1.10218"
       id="path562395"
       sodipodi:nodetypes="cscsscssccsssssssssssssssssssssssssssssssssssssssssssssssssssssss" />
  </g>
</svg>
